<?xml version="1.0" encoding="UTF-8"?>
<svg version="1.1" xmlns="http://www.w3.org/2000/svg" width="64" height="64">
<path d="M0 0 C3.03229145 1.0864129 4.50522342 2.37985592 6.75341797 4.67602539 C7.51783203 5.44881836 8.28224609 6.22161133 9.06982422 7.01782227 C10.24738281 8.23888672 10.24738281 8.23888672 11.44873047 9.48461914 C12.22603516 10.2715918 13.00333984 11.05856445 13.80419922 11.86938477 C18.04485521 16.19200302 22.13399257 20.6094331 26.0703125 25.2109375 C27.50419396 26.84297309 29.03757354 28.38596221 30.57373047 29.92211914 C30.90373047 20.35211914 31.23373047 10.78211914 31.57373047 0.92211914 C34.87373047 0.92211914 38.17373047 0.92211914 41.57373047 0.92211914 C41.6230653 7.43659349 41.65941898 13.95095977 41.68359375 20.46557617 C41.69366871 22.68304335 41.70732906 24.90049719 41.72460938 27.11791992 C41.7487921 30.30008226 41.76019844 33.48206938 41.76904297 36.66430664 C41.77936554 37.66017792 41.78968811 38.65604919 41.80032349 39.68209839 C41.80055008 41.06330368 41.80055008 41.06330368 41.80078125 42.47241211 C41.80522247 43.28515594 41.8096637 44.09789978 41.8142395 44.93527222 C41.57373047 46.92211914 41.57373047 46.92211914 39.57373047 48.92211914 C36.43247226 49.39191277 35.06333807 49.27625995 32.46484375 47.39672852 C31.78147949 46.69354492 31.09811523 45.99036133 30.39404297 45.26586914 C29.62962891 44.48985352 28.86521484 43.71383789 28.07763672 42.91430664 C27.29259766 42.09188477 26.50755859 41.26946289 25.69873047 40.42211914 C24.92142578 39.63063477 24.14412109 38.83915039 23.34326172 38.02368164 C19.1395927 33.71403777 15.08305309 29.30792616 11.17480469 24.72875977 C9.39116403 22.71611248 7.47532494 20.82371361 5.57373047 18.92211914 C5.24373047 28.49211914 4.91373047 38.06211914 4.57373047 47.92211914 C1.27373047 47.92211914 -2.02626953 47.92211914 -5.42626953 47.92211914 C-5.50034894 41.56838544 -5.55483833 35.21490234 -5.59106445 28.86083984 C-5.60616397 26.69868594 -5.62664524 24.53656271 -5.65258789 22.37451172 C-5.68891971 19.26921014 -5.70598415 16.164313 -5.71923828 13.05883789 C-5.73472214 12.09000168 -5.75020599 11.12116547 -5.76615906 10.12297058 C-5.76638565 9.22226334 -5.76661224 8.32155609 -5.7668457 7.39355469 C-5.77350754 6.60079636 -5.78016937 5.80803802 -5.78703308 4.99125671 C-5.17102422 1.45817505 -3.58302268 -0.11501149 0 0 Z " fill="#3B5685" transform="translate(13.42626953125,7.077880859375)"/>
</svg>
